<mxfile host="65bd71144e">
    <diagram id="3hwisVhEwtjJ_Zp9myxq" name="PÃ¡gina-1">
        <mxGraphModel dx="650" dy="516" grid="1" gridSize="10" guides="1" tooltips="1" connect="1" arrows="1" fold="1" page="1" pageScale="1" pageWidth="827" pageHeight="1169" math="0" shadow="0">
            <root>
                <mxCell id="0"/>
                <mxCell id="1" parent="0"/>
                <mxCell id="4" value="" style="edgeStyle=none;html=1;strokeColor=#000000;fontColor=#000000;" parent="1" source="2" target="3" edge="1">
                    <mxGeometry relative="1" as="geometry"/>
                </mxCell>
                <mxCell id="2" value="INICIO" style="ellipse;whiteSpace=wrap;html=1;fillColor=#FF9999;fontColor=#000000;strokeColor=#000000;" parent="1" vertex="1">
                    <mxGeometry x="240" y="120" width="80" height="40" as="geometry"/>
                </mxCell>
                <mxCell id="6" value="" style="edgeStyle=none;html=1;strokeColor=#000000;fontColor=#000000;" parent="1" source="3" target="5" edge="1">
                    <mxGeometry relative="1" as="geometry"/>
                </mxCell>
                <mxCell id="3" value="num" style="shape=parallelogram;perimeter=parallelogramPerimeter;whiteSpace=wrap;html=1;fixedSize=1;fillColor=#FFFF99;fontColor=#000000;strokeColor=#000000;" parent="1" vertex="1">
                    <mxGeometry x="240" y="200" width="80" height="40" as="geometry"/>
                </mxCell>
                <mxCell id="8" value="" style="edgeStyle=none;html=1;strokeColor=#000000;fontColor=#000000;" parent="1" source="5" target="7" edge="1">
                    <mxGeometry relative="1" as="geometry"/>
                </mxCell>
                <mxCell id="5" value="digito1 = num%10&lt;br&gt;digito2 = (num%100)//10" style="whiteSpace=wrap;html=1;fillColor=#9999FF;fontColor=#000000;strokeColor=#000000;" parent="1" vertex="1">
                    <mxGeometry x="200" y="280" width="160" height="60" as="geometry"/>
                </mxCell>
                <mxCell id="11" style="edgeStyle=none;html=1;exitX=1;exitY=0.5;exitDx=0;exitDy=0;entryX=0.5;entryY=0;entryDx=0;entryDy=0;strokeColor=#000000;fontColor=#000000;" parent="1" source="7" edge="1">
                    <mxGeometry relative="1" as="geometry">
                        <mxPoint x="440" y="460" as="targetPoint"/>
                        <Array as="points">
                            <mxPoint x="440" y="420"/>
                        </Array>
                    </mxGeometry>
                </mxCell>
                <mxCell id="12" style="edgeStyle=none;html=1;exitX=0;exitY=0.5;exitDx=0;exitDy=0;entryX=0.5;entryY=0;entryDx=0;entryDy=0;strokeColor=#000000;fontColor=#000000;" parent="1" source="7" edge="1">
                    <mxGeometry relative="1" as="geometry">
                        <mxPoint x="120" y="460" as="targetPoint"/>
                        <Array as="points">
                            <mxPoint x="120" y="420"/>
                        </Array>
                    </mxGeometry>
                </mxCell>
                <mxCell id="7" value="digito1 = digito2" style="rhombus;whiteSpace=wrap;html=1;fillColor=#CC99FF;fontColor=#000000;strokeColor=#000000;" parent="1" vertex="1">
                    <mxGeometry x="230" y="380" width="100" height="80" as="geometry"/>
                </mxCell>
                <mxCell id="13" value="True" style="text;html=1;align=center;verticalAlign=middle;resizable=0;points=[];autosize=1;strokeColor=none;fillColor=none;fontColor=#000000;" parent="1" vertex="1">
                    <mxGeometry x="340" y="400" width="40" height="20" as="geometry"/>
                </mxCell>
                <mxCell id="15" value="False" style="text;html=1;align=center;verticalAlign=middle;resizable=0;points=[];autosize=1;strokeColor=none;fillColor=none;fontColor=#000000;" parent="1" vertex="1">
                    <mxGeometry x="170" y="400" width="50" height="20" as="geometry"/>
                </mxCell>
                <mxCell id="18" value="&quot;Son iguales.&quot;" style="shape=document;whiteSpace=wrap;html=1;boundedLbl=1;rounded=0;fillColor=#FFFF99;fontColor=#000000;strokeColor=#000000;" parent="1" vertex="1">
                    <mxGeometry x="390" y="460" width="100" height="40" as="geometry"/>
                </mxCell>
                <mxCell id="20" value="" style="endArrow=none;html=1;entryX=0.5;entryY=1;entryDx=0;entryDy=0;exitX=0.5;exitY=1;exitDx=0;exitDy=0;strokeColor=#000000;fontColor=#000000;" parent="1" edge="1">
                    <mxGeometry width="50" height="50" relative="1" as="geometry">
                        <mxPoint x="120" y="500" as="sourcePoint"/>
                        <mxPoint x="440" y="500" as="targetPoint"/>
                        <Array as="points">
                            <mxPoint x="120" y="540"/>
                            <mxPoint x="280" y="540"/>
                            <mxPoint x="440" y="540"/>
                        </Array>
                    </mxGeometry>
                </mxCell>
                <mxCell id="21" value="" style="endArrow=classic;html=1;strokeColor=#000000;fontColor=#000000;" parent="1" edge="1">
                    <mxGeometry width="50" height="50" relative="1" as="geometry">
                        <mxPoint x="280" y="540" as="sourcePoint"/>
                        <mxPoint x="280" y="580" as="targetPoint"/>
                    </mxGeometry>
                </mxCell>
                <mxCell id="22" value="FIN" style="ellipse;whiteSpace=wrap;html=1;fillColor=#FF9999;strokeColor=#000000;fontColor=#000000;rounded=0;" parent="1" vertex="1">
                    <mxGeometry x="240" y="580" width="80" height="40" as="geometry"/>
                </mxCell>
                <mxCell id="23" value="&quot;No son iguales.&quot;" style="shape=document;whiteSpace=wrap;html=1;boundedLbl=1;rounded=0;fillColor=#FFFF99;fontColor=#000000;strokeColor=#000000;" parent="1" vertex="1">
                    <mxGeometry x="70" y="460" width="100" height="40" as="geometry"/>
                </mxCell>
            </root>
        </mxGraphModel>
    </diagram>
</mxfile>